<?xml version="1.0" standalone="no"?>
<!DOCTYPE svg PUBLIC "-//W3C//DTD SVG 20010904//EN"
 "http://www.w3.org/TR/2001/REC-SVG-20010904/DTD/svg10.dtd">
<svg version="1.0" xmlns="http://www.w3.org/2000/svg"
 width="700.000000pt" height="700.000000pt" viewBox="0 0 700.000000 700.000000"
 preserveAspectRatio="xMidYMid meet">
<metadata>
Created by potrace 1.11, written by Peter Selinger 2001-2013
</metadata>
<g transform="translate(0.000000,700.000000) scale(0.100000,-0.100000)"
fill="#000000" stroke="none">
<path d="M3326 4945 c-899 -111 -1673 -718 -1995 -1567 -80 -211 -124 -400
-149 -638 -18 -177 1 -608 27 -625 4 -2 16 13 26 33 33 63 143 228 207 309 50
65 261 281 310 318 207 160 341 242 518 317 80 34 218 84 257 93 167 40 197
46 288 59 158 23 441 23 565 0 14 -2 36 -6 50 -9 13 -3 40 -7 60 -10 156 -23
382 -100 561 -190 178 -90 359 -215 359 -248 0 -33 60 -199 92 -257 41 -72
116 -167 170 -215 61 -54 169 -123 231 -147 29 -11 61 -24 72 -29 11 -5 32
-11 48 -14 15 -3 39 -7 55 -10 15 -3 38 -8 50 -11 24 -5 156 -6 202 0 101 11
229 55 317 108 215 130 364 380 380 638 6 112 -6 205 -48 349 -68 233 -177
466 -314 671 -303 452 -749 793 -1257 963 -142 48 -315 89 -423 102 -33 4 -69
10 -80 12 -50 12 -476 11 -579 -2z"/>
</g>
</svg>
