<?xml version="1.0" encoding="utf-8"?>
<!-- Generator: Adobe Illustrator 24.2.3, SVG Export Plug-In . SVG Version: 6.00 Build 0)  -->
<svg version="1.1" id="Layer_1" xmlns="http://www.w3.org/2000/svg" xmlns:xlink="http://www.w3.org/1999/xlink" x="0px" y="0px"
	 viewBox="0 0 2882.1 2290.1" style="enable-background:new 0 0 2882.1 2290.1;" xml:space="preserve">
<style type="text/css">
	.st0{fill:none;stroke:url(#SVGID_1_);stroke-width:498.85;stroke-miterlimit:10;}
	.st1{fill:none;stroke:url(#SVGID_2_);stroke-width:285.05;stroke-miterlimit:10;}
	.st2{fill:none;stroke:url(#SVGID_3_);stroke-width:700;stroke-miterlimit:10;}
	.st3{fill:none;stroke:url(#SVGID_4_);stroke-width:400;stroke-miterlimit:10;}
</style>
<g id="Layer_2-2">
	
		<linearGradient id="SVGID_1_" gradientUnits="userSpaceOnUse" x1="7079.7163" y1="-4211.5601" x2="9117.3506" y2="-4211.5601" gradientTransform="matrix(-0.8 0.8 0.47 0.47 9991.4492 -3794.8401)">
		<stop  offset="1.000000e-02" style="stop-color:#D81B60"/>
		<stop  offset="0.25" style="stop-color:#A33B81"/>
		<stop  offset="0.28" style="stop-color:#9F3C82"/>
		<stop  offset="0.31" style="stop-color:#943E83"/>
		<stop  offset="0.33" style="stop-color:#824186"/>
		<stop  offset="0.36" style="stop-color:#7B4287"/>
		<stop  offset="0.39" style="stop-color:#68458A"/>
		<stop  offset="0.43" style="stop-color:#494B8F"/>
		<stop  offset="0.47" style="stop-color:#1D5296"/>
		<stop  offset="0.49" style="stop-color:#01579B"/>
		<stop  offset="0.55" style="stop-color:#015FA3"/>
		<stop  offset="0.63" style="stop-color:#0274BA"/>
		<stop  offset="0.73" style="stop-color:#0396E0"/>
		<stop  offset="0.75" style="stop-color:#039BE5"/>
	</linearGradient>
	<path class="st0" d="M2452.2,383.2c-58.4-60.2-151.2-136.4-258.1-128.4c-197,14.8-275.6,303.3-444.4,498.6
		c-152.2,176-449.9,359.6-1095.3,345.1"/>
</g>
<g id="Layer_2">
	
		<linearGradient id="SVGID_2_" gradientUnits="userSpaceOnUse" x1="6841.71" y1="-3951.6848" x2="8915.752" y2="-3951.6848" gradientTransform="matrix(-0.8 0.8 0.47 0.47 9991.4492 -3794.8401)">
		<stop  offset="4.000000e-02" style="stop-color:#EC407A"/>
		<stop  offset="0.24" style="stop-color:#FFFFFF"/>
		<stop  offset="1" style="stop-color:#0288D1"/>
	</linearGradient>
	<path class="st1" d="M2879.9,229c-274.1-4.3-465.9,90.4-587.5,173.5c-217.1,148.3-258.1,292.1-549.7,511.8
		c-108.7,81.9-290.7,219-491.2,263.3c-293.2,64.8-432.4-111.4-466.8-159.9"/>
</g>
<g id="Layer_5">
	
		<linearGradient id="SVGID_3_" gradientUnits="userSpaceOnUse" x1="288.5869" y1="715.5518" x2="2535.0901" y2="715.5518" gradientTransform="matrix(1 0 0 -1 0 2290)">
		<stop  offset="1.000000e-02" style="stop-color:#D81B60"/>
		<stop  offset="0.25" style="stop-color:#A33B81"/>
		<stop  offset="0.28" style="stop-color:#9F3C82"/>
		<stop  offset="0.31" style="stop-color:#943E83"/>
		<stop  offset="0.33" style="stop-color:#824186"/>
		<stop  offset="0.36" style="stop-color:#7B4287"/>
		<stop  offset="0.39" style="stop-color:#68458A"/>
		<stop  offset="0.43" style="stop-color:#494B8F"/>
		<stop  offset="0.47" style="stop-color:#1D5296"/>
		<stop  offset="0.49" style="stop-color:#01579B"/>
		<stop  offset="0.55" style="stop-color:#015FA3"/>
		<stop  offset="0.63" style="stop-color:#0274BA"/>
		<stop  offset="0.73" style="stop-color:#0396E0"/>
		<stop  offset="0.75" style="stop-color:#039BE5"/>
	</linearGradient>
	<path class="st2" d="M636.8,934c9,90,37.2,225,140,314c174.7,151.2,418.4,44.5,656,80c207.1,31,493.7,182.7,790.6,763.6"/>
</g>
<g id="Layer_4">
	
		<linearGradient id="SVGID_4_" gradientUnits="userSpaceOnUse" x1="2.024757e-03" y1="893.1054" x2="2309.0828" y2="893.1054" gradientTransform="matrix(1 0 0 -1 0 2290)">
		<stop  offset="0.11" style="stop-color:#EC407A"/>
		<stop  offset="0.29" style="stop-color:#FFFFFF"/>
		<stop  offset="1" style="stop-color:#0288D1"/>
	</linearGradient>
	<path class="st3" d="M166.9,614c211.7,320.3,423.2,429.5,582,468c231.3,56.1,350.3-37.8,664,40c131.8,32.7,323.1,80.1,472,240
		c224,240.4,230.8,820.6,222,908"/>
</g>
</svg>
