<svg xmlns="http://www.w3.org/2000/svg" xmlns:xlink="http://www.w3.org/1999/xlink" style="enable-background:new 0 0 2882.1 2290.1" id="Layer_1" x="0" y="0" version="1.1" viewBox="0 0 2882.1 2290.1" xml:space="preserve"><style type="text/css">.st0{stroke:url(#SVGID_1_);stroke-width:498.85}.st0,.st1,.st2,.st3{fill:none;stroke-miterlimit:10}.st1{stroke:url(#SVGID_2_);stroke-width:285.05}.st2{stroke:url(#SVGID_3_);stroke-width:700}.st3{stroke:url(#SVGID_4_);stroke-width:400}</style><g id="Layer_2-2"><linearGradient id="SVGID_1_" x1="7079.716" x2="9117.351" y1="-4211.56" y2="-4211.56" gradientTransform="matrix(-0.8 0.8 0.47 0.47 9991.4492 -3794.8401)" gradientUnits="userSpaceOnUse"><stop style="stop-color:#d81b60" offset=".01"/><stop style="stop-color:#a33b81" offset=".25"/><stop style="stop-color:#9f3c82" offset=".28"/><stop style="stop-color:#943e83" offset=".31"/><stop style="stop-color:#824186" offset=".33"/><stop style="stop-color:#7b4287" offset=".36"/><stop style="stop-color:#68458a" offset=".39"/><stop style="stop-color:#494b8f" offset=".43"/><stop style="stop-color:#1d5296" offset=".47"/><stop style="stop-color:#01579b" offset=".49"/><stop style="stop-color:#015fa3" offset=".55"/><stop style="stop-color:#0274ba" offset=".63"/><stop style="stop-color:#0396e0" offset=".73"/><stop style="stop-color:#039be5" offset=".75"/></linearGradient><path d="M2452.2,383.2c-58.4-60.2-151.2-136.4-258.1-128.4c-197,14.8-275.6,303.3-444.4,498.6 c-152.2,176-449.9,359.6-1095.3,345.1" class="st0"/></g><g id="Layer_2"><linearGradient id="SVGID_2_" x1="6841.71" x2="8915.752" y1="-3951.685" y2="-3951.685" gradientTransform="matrix(-0.8 0.8 0.47 0.47 9991.4492 -3794.8401)" gradientUnits="userSpaceOnUse"><stop style="stop-color:#ec407a" offset=".04"/><stop style="stop-color:#fff" offset=".24"/><stop style="stop-color:#0288d1" offset="1"/></linearGradient><path d="M2879.9,229c-274.1-4.3-465.9,90.4-587.5,173.5c-217.1,148.3-258.1,292.1-549.7,511.8 c-108.7,81.9-290.7,219-491.2,263.3c-293.2,64.8-432.4-111.4-466.8-159.9" class="st1"/></g><g id="Layer_5"><linearGradient id="SVGID_3_" x1="288.587" x2="2535.09" y1="715.552" y2="715.552" gradientTransform="matrix(1 0 0 -1 0 2290)" gradientUnits="userSpaceOnUse"><stop style="stop-color:#d81b60" offset=".01"/><stop style="stop-color:#a33b81" offset=".25"/><stop style="stop-color:#9f3c82" offset=".28"/><stop style="stop-color:#943e83" offset=".31"/><stop style="stop-color:#824186" offset=".33"/><stop style="stop-color:#7b4287" offset=".36"/><stop style="stop-color:#68458a" offset=".39"/><stop style="stop-color:#494b8f" offset=".43"/><stop style="stop-color:#1d5296" offset=".47"/><stop style="stop-color:#01579b" offset=".49"/><stop style="stop-color:#015fa3" offset=".55"/><stop style="stop-color:#0274ba" offset=".63"/><stop style="stop-color:#0396e0" offset=".73"/><stop style="stop-color:#039be5" offset=".75"/></linearGradient><path d="M636.8,934c9,90,37.2,225,140,314c174.7,151.2,418.4,44.5,656,80c207.1,31,493.7,182.7,790.6,763.6" class="st2"/></g><g id="Layer_4"><linearGradient id="SVGID_4_" x1=".002" x2="2309.083" y1="893.105" y2="893.105" gradientTransform="matrix(1 0 0 -1 0 2290)" gradientUnits="userSpaceOnUse"><stop style="stop-color:#ec407a" offset=".11"/><stop style="stop-color:#fff" offset=".29"/><stop style="stop-color:#0288d1" offset="1"/></linearGradient><path d="M166.9,614c211.7,320.3,423.2,429.5,582,468c231.3,56.1,350.3-37.8,664,40c131.8,32.7,323.1,80.1,472,240 c224,240.4,230.8,820.6,222,908" class="st3"/></g></svg>