<svg xmlns="http://www.w3.org/2000/svg" xmlns:xlink="http://www.w3.org/1999/xlink" id="Layer_1" x="0" y="0" version="1.1" viewBox="0 0 1054.8 982.1" xml:space="preserve" style="enable-background:new 0 0 1054.8 982.1"><style type="text/css">.st0{display:none}.st1,.st2{display:inline;fill:#039be5}.st2{fill:none;stroke:#039be5;stroke-width:50;stroke-miterlimit:10}.st3{fill:#039be5}.st4{display:inline;fill:#4fc3f7}</style><g id="type-a" class="st0"><polygon points="817 675 752.1 562.5 685.4 562.5 817 790.5 948.6 562.5 881.9 562.5" class="st1"/><line x1="817" x2="817" y1="0" y2="675" class="st2"/></g><g id="type-b"><g><path d="M826.9,790.5h-19.8c-5.3,0-9.6-5.7-9.6-12.8V417.4h39v360.3C836.5,784.8,832.2,790.5,826.9,790.5z" class="st3"/></g><path d="M952.4,406.3c1.3,5-1.6,10.1-6.5,11.6c-16.5,5.1-33.4,9.3-50.7,12.5c-5.2,1-10.5,1.8-15.9,2.6 c-20.4,2.9-41.2,4.5-62.4,4.5s-42-1.5-62.4-4.5c-5.3-0.8-10.6-1.6-15.9-2.6c-17.3-3.1-34.2-7.3-50.7-12.5 c-4.9-1.5-7.8-6.7-6.5-11.6c9.4-35.9,32.8-66.2,64-84.7c2.6-1.6,4.4-4.3,4.7-7.4L765.6,159c0.4-4-1.7-7.8-5.2-9.6 c-21.7-11-66.9-41.4-66.9-54.3s0-27,0-27c0-5.3,4.3-9.7,9.7-9.7h229.6c5.3,0,9.7,4.3,9.7,9.7c0,0,0,14.2,0,27s-47,43.3-68.7,54.3 c-3.5,1.8-5.6,5.6-5.2,9.6l15.3,155.3c0.3,3.1,2.1,5.8,4.7,7.4C919.6,340.2,943,370.4,952.4,406.3z" class="st3"/></g><g id="type-c" class="st0"><path d="M966,329.4c0,142.7-149,203.7-148.9,460.6C817,533.1,668.2,472.1,668.2,329.4c0-87.3,66.7-158.1,148.9-158.1 S966,242.1,966,329.4z" class="st1"/><ellipse cx="819" cy="330" class="st4" rx="83.8" ry="88.9"/></g></svg>