<svg xmlns="http://www.w3.org/2000/svg" xmlns:xlink="http://www.w3.org/1999/xlink" id="Layer_1" x="0" y="0" version="1.1" viewBox="0 0 1054.8 982.1" xml:space="preserve" style="enable-background:new 0 0 1054.8 982.1"><style type="text/css">.st0{fill:#d81b60}.st1{fill:#01579b}</style><g id="g3151"><path d="M800.6,884.1c11,0,33.8,18.1,45,18.1c11.5,0,24.1-8.1,29-8.1h0.1c7.6,0.3,3.4,11,3.4,29.5l0,0 c0,16.2-10,26.6-18.3,37.6c-7.2,9.6-11.6,20.8-25.5,20.8c-10.1,0-9.7-8.5-13.8-12.9c-7.9-8.6-13.7-18.6-13.7-38.7 c0-18.7-24.3-45.3-7-46.4C800.2,884.1,800.4,884.1,800.6,884.1z" class="st0"/><path d="M838.7,840.3c-9.8,0-17.6-24.7-30.1-24.7c-0.4,0-0.9,0-1.3,0.1c-3.4,0.5-6.9,0.7-10.4,0.7 c-19.5,0-40.9-6.1-63.5-6.1c-2.9,0-5.8,0.1-8.8,0.3c-0.2,0-0.5,0-0.7,0c-13,0-18.1-27.1-31.2-27.1c-0.4,0-0.9,0-1.4,0.1 c-0.4,0.1-0.7,0.1-1.1,0.1c-16.7,0-1.8-60.5-12.8-60.5c-1.1,0-2.4,0.6-4,1.8c-2.8,2.2-5,3.1-6.8,3.1c-11.6,0-7.2-37.7-24.4-37.7 c-8.6,0,12-47.3,3.4-47.3l0,0c-3.6,0-48.5,49.8-52.9,49.8c-0.1,0-0.2,0-0.3-0.1c-6.6-9.6-12.3-32.2-24.1-42 c-8.2-6.9-12.4-17.7-21-23.7c-14.1-9.8-25.3-3.7-40.2-11.2c-8.8-4.4-17.5-10.7-26.4-10.7c-0.3,0-0.6,0-0.9,0 c-13.9,0.7-22.8,3.7-42.5,5.3c-31.7,2.6-53.8,22.1-85.1,22.1c-0.4,0-0.8,0-1.2,0c-0.1,0-0.2,0-0.3,0c-25.7,0-47.3,51.6-72,51.6 c-0.8,0-1.6-0.1-2.5-0.2c-4.5-0.6-8.8-0.9-12.9-0.9c-22,0-40.4,7.4-57.1,7.4c-0.2,0-0.5,0-0.7,0h-0.1c-16,0-29.9,40-44.3,40 c-1.1,0-2.2-0.2-3.3-0.7c-22.3-10.2-56.7,3.8-75-21.1c-8.6-11.7,19.7-9.9,12.7-24.8c-4.2-9,0.8-19.1,0.4-30.7 c-0.3-8.9-5.7-19.2-9.2-27.5c-3.6-8.5-11.8-15.6-15.7-25.7c-3.1-8.1-1.5-19.1-6.2-27.6c-6.8-12.2-18.5-24.2-25.2-35.9 c-3.4-6.1-2.2-12.8-5.8-18.3c-10.5-16.1-27.7-23.3-33.2-36.9c-1.1-2.7,0.1-3.6,2.5-3.6c6.1,0,20.1,6,27,6c2.2,0,3.6-0.6,3.9-2.1 c1.1-6-9.7-13.5-15.8-25.1C10.5,442,7,423.1,7,417.2c0-15-3.7-42.4,1.4-53.7c5-11.2,12.9-4.4,22.3-12C44.9,340,58.5,325.4,79,315.3 c7.1-3.5,17.6-2.8,25.4-6c30.3-12.2,61.9-26.5,90.9-41.5c13.7-7.1,17.6-31.5,30.6-39.6c5.7-3.5-10.4-20.5-4.8-24.2 c8.3-5.4,2-17,10.3-22.8c0.5-0.3,1.1-0.5,1.7-0.5c6.8,0,20.1,19.7,26.9,19.7c0.7,0,1.2-0.2,1.8-0.6c4.1-3.2-6.3-30.8-2.3-34.1 c0.6-0.5,1.5-0.8,2.5-0.8c6.1,0,17.9,8.8,24.1,8.8c1,0,1.9-0.2,2.5-0.8c4.1-3.5-12.5-29-8.4-32.7c21.3-19.5,49.9-35.6,73.9-53.8 c0.4-0.3,0.9-0.5,1.5-0.5c7.9,0,27.2,30.3,35.2,30.3c0.5,0,1-0.1,1.5-0.5c1.7-1.2,3.6-1.7,5.6-1.7c8.7,0,19.4,9.8,27.9,9.8 c2.4,0,4.6-0.8,6.6-2.7c8.8-8.8-18.2-12.4-9.9-24.1c10.9-15.5,20-37.1,38.4-53.2c3.8-3.3,8.2-4.3,13-4.3c7.5,0,15.8,2.5,23.6,2.5 c3.6,0,7.1-0.5,10.3-2c4.7-2.2,6.5-9.6-0.2-15.1c-6.4-5.2-21.2-8.4-17.5-12.3c0.8-0.8,2.1-1.2,3.8-1.2c9.6,0,32.2,10.6,47.1,10.6 c0.5,0,1.1,0,1.6,0c0.3,0,0.6,0,0.9,0c8.5,0,17.6,6.7,19.9,6.7c8.2,0,18.7,8.6,26.8,8.8c0.1,0,0.1,0,0.2,0c5.5,0,7.8-7.9,13.2-7.9 c0.1,0,0.2,0,0.3,0c12.5,0.6,17.7,4.7,29.9,5.8c11.6,1.1,6.3,16.1-1.4,24.6c-4,4.4-26.5,12-19.9,20.6c6.8,8.7-23.2,30.3-12.8,36.7 c40.8,25.2,77,72.1,125.3,84.6c2.2,0.6,4.2,0.8,6.1,0.8c33.4,0,36.4-79.1,40.4-116c2-22.4,22.9-86.7,31.1-86.7 c0.9,0,1.6,0.7,2.1,2.2c6,16.9,12.4,41.6,28,74.5c2.7,5.7-0.2,26.6,3.5,32.8c1.5,2.5,3.6,3.1,6,3.1s5-0.6,7.8-0.6 c1.5,0,3.1,0.2,4.7,0.8c6.7,2.5,12.9,13.3,18.1,19.6c8.2,10.1-2.4,45,6.9,55.8c12.8,14.9,6.4,61.2,21.2,75.7 c1.4,1.4,2.9,1.8,4.4,1.8c3.5,0,7.2-2.5,10.8-2.5c1.5,0,2.9,0.4,4.3,1.6c9,7.7,27.5,20,33.5,30.5c4.3,7.6-4.3,13.6,2.6,18.8 c11.5,8.6,14.8,43.3,26.4,50.9c0.5,0.3,0.9,0.5,1.3,0.5c2,0,1.7-4.8,5.3-4.8c1.4,0,3.5,0.8,6.6,3c8.9,6.3,5.4,24.9,11.4,33 c9.2,12.2,30.1,36.6,37.5,47.7c16.6,24.8,7.3,61.8,7.3,74.8c0,58.3-18.7,102-42.6,142.4c-5.6,9.5-12.6,11.6-19.4,20.2 c-15.6,19.9-9.2,41.3-30.6,57.3c-18.7,14-22.7,38.3-23.5,63.5c-0.1,3.8-2.9,4.9-6.9,4.9c-5.4,0-12.9-2-18.8-2 c-3.1,0-5.7,0.6-7.3,2.2c-1.2,1.2-3.2,1.6-5.6,1.6c-4,0-9.1-1-13.3-1c-2.1,0-3.9,0.3-5.2,1c-12.4,7-22.9,23.2-37.5,30.4 C840.6,840.1,839.6,840.3,838.7,840.3z" class="st0"/></g><g id="Layer_3"><g id="type-b"><g><path d="M820.8,791.5l-3.1,1.7c-0.8,0.5-2-0.1-2.6-1.2l-31-56.5l6.1-3.4l31,56.5C821.8,789.7,821.6,791,820.8,791.5z" class="st1"/></g><path d="M807.4,720.4c0.6,0.7,0.6,1.7,0,2.4c-2.1,2.2-4.4,4.3-6.9,6.3c-0.7,0.6-1.5,1.2-2.3,1.8 c-2.9,2.2-6.1,4.3-9.4,6.1c-3.3,1.8-6.7,3.4-10.2,4.7c-0.9,0.3-1.8,0.7-2.7,1c-3,1-6,1.8-9,2.4c-0.9,0.2-1.8-0.4-2-1.3 c-1.6-6.4-0.6-13.2,2.7-18.8c0.3-0.5,0.3-1.1,0.1-1.6l-10.9-25.6c-0.3-0.7-0.9-1.1-1.6-1.1c-4.3,0.1-14-0.7-15.2-2.8 c-1.1-2-2.3-4.2-2.3-4.2c-0.5-0.8-0.2-1.9,0.7-2.4l36-19.8c0.8-0.5,1.9-0.2,2.4,0.7c0,0,1.2,2.2,2.3,4.2s-3.6,10.8-6.1,14.4 c-0.4,0.6-0.4,1.4,0,2l15.8,23c0.3,0.5,0.8,0.7,1.4,0.8C796.5,712.9,802.8,715.6,807.4,720.4z" class="st1"/></g></g></svg>