<svg data-name="Layer 1" xmlns="http://www.w3.org/2000/svg" viewBox="0 0 1080 1080" shape-rendering="geometricPrecision"><defs/><defs><linearGradient id="a" x1="468.18" y1="367.18" x2="638.09" y2="967.19" gradientUnits="userSpaceOnUse"><stop offset=".01" stop-color="#d81b60"/><stop offset=".25" stop-color="#a33b81"/><stop offset=".28" stop-color="#9f3c82"/><stop offset=".31" stop-color="#943e83"/><stop offset=".33" stop-color="#824186"/><stop offset=".36" stop-color="#7b4287"/><stop offset=".39" stop-color="#68458a"/><stop offset=".43" stop-color="#494b8f"/><stop offset=".47" stop-color="#1d5296"/><stop offset=".49" stop-color="#01579b"/><stop offset=".55" stop-color="#015fa3"/><stop offset=".63" stop-color="#0274ba"/><stop offset=".73" stop-color="#0396e0"/><stop offset=".75" stop-color="#039be5"/></linearGradient><linearGradient id="b" x1="265.9" y1="444.48" x2="859.93" y2="787.45" gradientUnits="userSpaceOnUse"><stop offset=".04" stop-color="#ec407a"/><stop offset=".24" stop-color="#fff"/><stop offset="1" stop-color="#0288d1"/></linearGradient></defs><path d="M812.61 756.25c78-2.8 132.55-78.37 113.86-154.19-40.66-165-189.63-287.4-367.2-287.4-208.87 0-378.2 169.33-378.2 378.2a413.65 413.65 0 005.29 63.48C240.94 651 350.49 576.49 477.29 576.49a326.47 326.47 0 01202.49 70 129.64 129.64 0 00128.1 109.84c1.58.01 3.12-.02 4.73-.08z" fill="url(#a)"/><path d="M926.47 602.06c-40.66-165-189.63-287.4-367.2-287.4-208.87 0-378.2 169.33-378.2 378.2a413.65 413.65 0 005.29 63.48l.07-.12c0-1.73-.07-3.45-.07-5.17 0-185.51 150.38-335.89 335.89-335.89 183.66 0 332.87 147.42 335.81 330.39 52.18-23.8 83.18-83.55 68.41-143.49z" fill="url(#b)"/></svg>